<svg height="426pt" viewBox="-1 0 426 426.30594" width="426pt" xmlns="http://www.w3.org/2000/svg"><path d="m275.152344 305.300781h39v21h-39zm0 0"/><path d="m220.054688 55.5-196.300782-1.199219h-.101562c-6.160156.003907-12.078125 2.410157-16.5 6.699219-4.425782 4.316406-6.945313 10.21875-7 16.398438v12.703124l211.699218 1.398438c.746094-12.367188 3.515626-24.527344 8.203126-36zm0 0"/><path d="m325.851562 0c-54.121093 0-98 43.875-98 98s43.878907 98 98 98c54.125 0 98-43.875 98-98-.085937-54.085938-43.910156-97.9140625-98-98zm40.601563 127-35.300781 36.800781c-1.488282 1.738281-3.714844 2.667969-6 2.5-2.128906-.039062-4.148438-.941406-5.597656-2.5l-34.5-36.300781c-22.101563-23.199219-21.902344-61 .597656-84.199219 10.671875-11.417969 25.574218-17.929687 41.199218-18 15.273438.03125 29.851563 6.363281 40.300782 17.5 22.101562 23.097657 21.800781 60.898438-.699219 84.199219zm0 0"/><path d="m326.851562 41.300781c-11.261718.078125-22 4.777344-29.699218 13-16.597656 17.199219-16.800782 45-.5 62l29 30.300781 29.5-30.800781c16.601562-17.199219 16.800781-45 .5-62-7.476563-7.941406-17.890625-12.460937-28.800782-12.5zm-1.296874 71.097657c-16.183594 0-29.300782-13.117188-29.300782-29.296876 0-16.183593 13.117188-29.300781 29.300782-29.300781 16.179687 0 29.296874 13.117188 29.296874 29.300781-.019531 16.171876-13.125 29.277344-29.296874 29.296876zm0 0"/><path d="m165.152344 107.199219-165-1.097657v123.296876l165 .703124zm0 0"/><path d="m173.054688 247.300781c-1.519532.015625-3.011719-.398437-4.300782-1.199219l-168.601562-.703124v109.601562c.144531 12.886719 10.613281 23.269531 23.5 23.300781h300.5c12.808594-.066406 23.148437-10.492187 23.101562-23.300781v-108.101562l-169.902344-.699219c-1.324218.703125-2.796874 1.078125-4.296874 1.101562zm-84.902344 87c-.011719 4.410157-3.585938 7.984375-8 8h-54c-4.414063-.015625-7.984375-3.589843-8-8v-37c.015625-4.414062 3.585937-7.988281 8-8h54c4.414062.011719 7.988281 3.585938 8 8zm136.699218 10h-101.898437c-4.417969 0-8-3.582031-8-8s3.582031-8 8-8h101.898437c4.417969 0 8 3.582031 8 8s-3.582031 8-8 8zm34.300782-47c.015625-4.414062 3.585937-7.988281 8-8h54c4.414062.011719 7.988281 3.585938 8 8v37c-.011719 4.410157-3.585938 7.984375-8 8h-54c-4.414063-.015625-7.984375-3.589843-8-8zm-26.300782 4c-.011718 4.410157-3.585937 7.984375-8 8h-101.898437c-4.417969 0-8-3.582031-8-8s3.582031-8 8-8h101.898437c4.414063.011719 7.988282 3.585938 8 8zm0 0"/><path d="m21.152344 394.101562v25c0 4.199219 3.5 7.199219 7.699218 7.199219h33.5c4.203126 0 7.800782-3.101562 7.800782-7.199219v-24.800781h-46.5c-.800782 0-1.5-.199219-2.5-.199219zm0 0"/><path d="m34.152344 305.300781h38v21h-38zm0 0"/><path d="m278.152344 394.300781v24.800781c-.050782 1.941407.703125 3.820313 2.085937 5.183594 1.382813 1.367188 3.273438 2.09375 5.214844 2.015625h33.5c1.925781.058594 3.792969-.679687 5.15625-2.042969 1.363281-1.363281 2.101563-3.230468 2.042969-5.15625v-25c-.695313.105469-1.394532.171876-2.097656.199219zm0 0"/><path d="m325.554688 69.699219c-7.347657 0-13.300782 5.957031-13.300782 13.300781s5.953125 13.300781 13.300782 13.300781c7.34375 0 13.296874-5.957031 13.296874-13.300781-.03125-7.332031-5.964843-13.269531-13.296874-13.300781zm0 0"/><path d="m212.253906 107.5-31.101562-.199219v122.800781l166 .699219v-21c-7.054688 1.324219-14.21875 1.992188-21.398438 2-59.601562.097657-108.601562-45.902343-113.5-104.300781zm0 0"/></svg>